<?xml version="1.0" encoding="UTF-8"?>
<svg width="24" height="24" viewBox="0 0 24 24" fill="none" xmlns="http://www.w3.org/2000/svg">
  <path d="M4 6C4 4.89543 4.89543 4 6 4H18C19.1046 4 20 4.89543 20 6V18C20 19.1046 19.1046 20 18 20H6C4.89543 20 4 19.1046 4 18V6Z" fill="#4F46E5"/>
  <path d="M8 8C8 7.44772 8.44772 7 9 7H15C15.5523 7 16 7.44772 16 8V10C16 10.5523 15.5523 11 15 11H9C8.44772 11 8 10.5523 8 10V8Z" fill="white"/>
  <path d="M8 13C8 12.4477 8.44772 12 9 12H15C15.5523 12 16 12.4477 16 13V15C16 15.5523 15.5523 16 15 16H9C8.44772 16 8 15.5523 8 15V13Z" fill="white"/>
</svg>
